<svg id="Layer_1" data-name="Layer 1" xmlns="http://www.w3.org/2000/svg" viewBox="0 0 1080 1080"><defs><style>.cls-1{fill:#a8bfbf;}.cls-2{fill:#b37f4e;}.cls-3{fill:#b78352;}.cls-4{fill:#b6895e;}.cls-5{fill:#b7824f;}.cls-6{fill:#facdb8;}.cls-7{fill:#fabea0;}.cls-8{fill:#f8bea3;}.cls-9{fill:#b48257;}.cls-10{fill:#b77f4b;}.cls-11{fill:#b8833b;}.cls-12{fill:#dfd1ca;}.cls-13{fill:#e9d0c3;}.cls-14{fill:#e5d0c8;}.cls-15{fill:#ddd3c9;}.cls-16{fill:#b48150;}.cls-17{fill:#b3814f;}.cls-18{fill:#8db2af;}.cls-19{fill:#f3b3ab;}.cls-20{fill:#fdc9ba;}.cls-21{fill:#fccba2;}.cls-22{fill:#b87f44;}.cls-23{fill:#f7c667;}.cls-24{fill:#986d81;}</style></defs><circle class="cls-1" cx="540.4" cy="538.3" r="531.5"/><circle class="cls-2" cx="773.7" cy="600" r="29.9"/><circle class="cls-2" cx="344.4" cy="600" r="29.9"/><path class="cls-2" d="M263,800.7c-5.8-9.9-11.4-17.2-25.7-18.4-15.9-1.4-19.8-17.1-18.8-31.4,1.1-16.5,1.7-28-21.2-30.4-20.6-2.1-28-25.5-18.3-49.3,5.5-13.5,9.1-21.7-10-27.8-18.3-5.8-23.8-31.6-11.6-48.6,7.6-10.6,7.7-19.5,5.9-31.7-5-33.8,11.8-58.1,39.7-74.8,10.7-6.4,16.4-12.9,15.7-25.8-.6-10.5,2.7-20.6,11.4-27.9,4.5-.8,9.6-.8,10.7-6.9a3.32,3.32,0,0,1,3.3-.9c12.2-2.2,11.8-9.3,7.1-18.1-6.5-14.8-3.1-28.1,8.7-38.1,7.2-6.1,4.4-8.3-.3-14-23.5-28.2-17.9-58.9,14.4-77,9-5,12.2-7.6,7.1-18.8-9-19.9,1.2-37.3,14-52.1s29.3-23.7,49.2-17.1c10.9,3.7,16.1,1.2,22.9-7.5,16.8-21.7,36.1-26.3,62.3-16.3,6.8,2.6,11.7,4,18.4-1.2,13.8-10.7,28.8-8.8,43.3-.8,5.5,3,9,6.2,15.8.4,20.7-17.6,33.6-16.6,51.9,3.7,7.3,8,12,11.6,21.9,2.7,9-8.1,23.4-12.4,32.4-3.9,15.7,14.8,27.8,5.9,41.2-1.1,8.1-1.3,15.8.2,23.3,3.3,11.6,3.5,13.8,16.2,22.2,22.8,3.5,1.8,7,3.1,10.6.1,8.6-2,17.2-4,25.6,1,33.3,25.3,47.1,61.8,55.8,100.5,2.9,12.7,8.4,20.9,19.3,27.1,33.3,18.8,37.5,27.4,29.6,63.8-2.7,12.2,3.3,18.7,12,24.3,18.8,12.1,35.1,25.5,33.2,51.1-.6,7.5,5.6,7.9,11.4,8.8,26,4.3,33.2,15.8,25.5,41.4-2,6.7-3.3,11,4.9,14.3,17.8,7.2,19.3,20.8,12,36.3-3.2,6.9-6.8,12.4,4.3,14.6,13.8,2.7,21.7,11.3,23,25.2,1.5,15.3-2.8,30.4-17.2,35.7-20.1,7.4-14.8,29.6-27.8,40.3-1,.8,1,5.6,2.1,8.4,8.6,22.4,3.1,37.8-19.3,47.6-8.8,3.9-13.3,8.1-15.4,17.7-3.9,17.6-16.2,28.8-33.4,33.7-6.2,1.8-12.5,2.9-14.5,9.6-6.4,21.5-22,26.3-41.8,24.1-4.3-.5-8.7-1.4-11.4,3.4-6.6,11.4-17.2,14.5-29.6,14-5.2-2.3-10.4-6.4-15.6,0-10.3,8-16.9-1.2-23.8-5.8-18-12.2-34.1-27.2-54.4-35.8-13.9-11.1-34.3-10.6-46.1-25.6-4.2-12.3-.9-25.2-3.5-37.6a15.63,15.63,0,0,1,.2-5.7c1.7-5.4,6.4-7.1,11.1-8.7,58.4-19.7,91.6-61.1,104.7-120.4,4.2-18.9,8.4-20,24.7-9.4a29.58,29.58,0,0,1,3,6.5c2.4,7,5.2,13.8,14.5,13.3,8.8-.5,9.7-7.4,11.2-13.9a15.47,15.47,0,0,1,3.2-6.4c28.4-22.5,33.1-47.1,14.7-72.8-9.3-13-21.7-16.6-36.9-16.5-24.5.1-24.6-.3-27.6-23.3a22.4,22.4,0,0,0-12.1-17.5c-14.6-7.8-22.9-20.2-27.9-35.3-4.9-14.9-13.2-24.4-30.5-24.2-11.5.1-19.4-6.6-24.3-17.1-2.3-5-4.2-10.3-6.7-15.2-13.7-27.5-30.3-29.1-49.3-4.8-16.2,20.8-24.7,23.4-50.6,14.7-12.4-4.2-23-3.2-31.2,8.2-10.6,14.7-24.4,17.6-40.7,10.9-10-4.1-20.6-3.3-31-3.6-5.5-.4-10.6.2-13.8,5.8a12.49,12.49,0,0,1-3.7,2.8c-6.7,2.2-8.1,7.9-9.6,13.7-2,7.8-7.1,11.9-15.2,12.3a13.75,13.75,0,0,1-4.5-1.3c-6.2-4.7-9.3-1.1-11.4,4.6-9,13.7-8.7,29.1-8.3,44.4s-5.4,24.8-22.1,25.1c-22,.4-32.9,15-39,33.3-6.8,20.4-.8,36.4,16.5,50.2,2.9,2.3,6,4.3,8.2,7.3,2.9,5.1,3.1,10.8,3.2,16.4,2.4,14.4,6,15.8,19.7,7.5a45.57,45.57,0,0,0,3.7-14.5c.5-4.5.8-9.1,3.7-12.9,14.7-7,17,4.9,19.7,13.8,11,35.9,32.8,64.2,59.7,89.6,14.6,13.8,34.6,18.5,49.5,31.4,1,15.3.1,30.6-1.1,45.7-1.5,19.8-12.8,33.8-31.2,41.8-18.4,1.9-32.5,12.5-46.8,22.9-8.4,6.1-16.6,12.8-28.1,8.5-9.4-1.9-13.3-10-18.4-16.7-6.7-8.8-13.5-9.6-20.7-.5-25.2,14.1-35.3,12.7-51.6-6.9C287.4,801.2,270.7,810.1,263,800.7Z"/><path class="cls-2" d="M263,800.7c6.4,1.3,12.9,3.4,19.3,3.6,7.9.3,10.8,3.8,10.4,11.1C285.2,805.7,268.9,813.7,263,800.7Z"/><path class="cls-2" d="M758.9,837.1c10.9-2.4,21.2-6.2,29.6-14C783.8,838.7,773,841.4,758.9,837.1Z"/><path class="cls-3" d="M700.1,193.9c-12.4-2.2-11.8-18-22.7-21.8,1.2-1.6,2.6-1.7,4.2-.4C692.1,175.4,696.9,183.9,700.1,193.9Z"/><path class="cls-4" d="M681.5,171.7c-1.4.1-2.8.3-4.2.4-7.6-1.5-15.2-2.9-22.8-4.4C664.5,162,673.3,164.7,681.5,171.7Z"/><path class="cls-5" d="M240.8,427.7c-.8,5,1.8,10.5-1.6,15.1-6.1.2-1.8-10.1-9.1-8.3C232.1,429.8,235.7,427.7,240.8,427.7Z"/><path class="cls-5" d="M251.2,408.7c6.9,5,5.3,11.5,2.3,17.5-2.3,4.6-6.2,1.6-9.4.6C252.5,423.2,252.7,416.3,251.2,408.7Z"/><path class="cls-2" d="M736.2,195c-8.5-.3-17-.7-25.6-1C719.4,188.4,728,187,736.2,195Z"/><path class="cls-6" d="M487.5,719.6c-57.6-19-89.4-62.2-109.9-116.3-2.6-6.8-.4-19.2-14.4-16.8-18.8,9.5-22,7.3-23.9-16.7-.6-1.9.4-5.1-2.8-5-1.7.1-1.6,2.8-1.8,4.5-.8,7.1,1.1,14.8-5.4,20.3-26.1-11.3-34.5-27.4-29.2-55.6,4.2-22.4,23.5-40.9,45.5-40.7,14.9.1,17.5-6.6,16.8-19.1-1-17.8-1.8-35.8,11.9-50.3,4.7-4.7,9.5-4.6,14.3-.2l-.1-.1c9.3,3.9,14.7-.3,18.2-8.6,2.8-6.6,5.8-13.1,12-17.4h-.1c2.5-5.1,6.1-9,11.5-11.1,13.5-1,26.6-1.6,39.6,5,12.7,6.5,24.3,2.5,31.6-9.9,9.5-16,22.2-17.2,37.8-10.5,21.7,9.4,32.2,6.5,44.8-12.9,7.1-11,12.6-22.6,29.1-20.7,16.1,1.8,23.6,13.3,28.1,25.9,6.7,19,14.7,33,38.6,30.4,12.4-1.3,17.3,10.4,20.7,20.4,5.8,17.4,13.1,32.6,31.8,40.3a19,19,0,0,1,11.2,23.1c-4.5,16.4,3.7,17,16,15.3,23-3.1,40.4,4.6,52.2,25.7,16.6,29.6,8.3,56.8-22.9,71.1-5.4-4.2-4.9-10.3-5.3-16.1q-.15-4.05,0-8.1c-.8-2.9,1.8-7.2-2.8-8.4-1.4-.4-1.8,2.4-2,4.1-2.2,10.4,6.7,22.9-6,31.1-6.3,2.5-12.2,2.1-17.7-2-6.8-2.9-15.3-13.9-18.2,3.1-11.9,69-52.6,112.2-118.3,133.3-11.4,10-25.9,10.6-39.6,11.8-23.8,2.1-47.4-1.5-70.5-7.1C501,728.3,493.6,725,487.5,719.6Z"/><path class="cls-6" d="M487.5,719.6c5.1,2.8,13.3-1.3,16,7,11.3,8,22.7,15.8,36,20.4,26,13.6,54.8,17.2,82.7,23.8,14.3,8.8,32.8,9,45.1,21.8-4.7,4.6-11,7.9-12.2,15.3a50.91,50.91,0,0,1-14.8,14.8c-4.8.1-7.2,2.6-7.4,7.4-3.6,5.1-11.2,2.3-14.7,7.5-.2,4.8-2.7,7.2-7.5,7.3-3.7,5-11.2,2.4-14.9,7.3H529.4c-3.7-5-11.2-2.3-14.9-7.3h0c-3.6-5.1-11.2-2.3-14.7-7.5-15-10.7-26.7-25.8-44.2-33.3,19.3-9.3,30.7-23.6,29.9-46.1C485.1,745.3,484.7,732.4,487.5,719.6Z"/><path class="cls-7" d="M622.2,770.9c-31.1,2.8-59.1-6.3-85.5-22-3.4-14.8,8.1-10.8,14.8-10.9,22.6-.6,45.5,1.6,67-8.2C624.9,743.1,620.4,757.3,622.2,770.9Z"/><path class="cls-8" d="M618.6,729.8c-6.6,9.3-15.4,12.7-26.9,11.9-13.5-.9-27.1-.3-40.6-.2-5.9.1-13-1.7-14.3,7.4-14-3.1-26.6-8.2-33.3-22.3,38.3,7.4,76.6,11.3,115,.1A8.15,8.15,0,0,1,618.6,729.8Z"/><path class="cls-9" d="M418.6,397.7c-1.8,9.3-7.7,16.6-12.5,24.3s-11,9.3-17.6,1.7c9.3-1.5,15.2-5.1,15.6-16.2C404.4,399.9,408.4,392.9,418.6,397.7Z"/><path class="cls-10" d="M418.2,787.9c14-4.2,18.8,7.1,32.2,8.2C433.9,804,426.2,799.2,418.2,787.9Z"/><path class="cls-11" d="M355.6,615.8c1.2-.1,2.3-.3,3.5-.5-3.6,14.3-15,7.1-22.7,7.2-8.9.1-6.1-8.6-6.8-14.2,4.8,2,2,9.3,7.5,10.8C342.8,615.4,350,620.1,355.6,615.8Z"/><path class="cls-5" d="M274,430c1.6,6.2,4.1,9.8.5,14.3C269.1,440.9,269.7,436.9,274,430Z"/><path class="cls-12" d="M640.3,822.8c2.1-7.8,7-12.8,14.8-14.8C656.8,819.5,651.9,824.5,640.3,822.8Z"/><path class="cls-13" d="M618.2,837.7c1.1-10,8.9-6.7,14.7-7.5C631.9,840.2,624,837,618.2,837.7Z"/><path class="cls-14" d="M499.9,837.6c5.8.7,13.5-2.3,14.7,7.5C508.8,844.4,500.9,847.6,499.9,837.6Z"/><path class="cls-15" d="M514.6,845.1c5.8.6,13.5-2.5,14.9,7.3C523.6,851.8,515.9,855,514.6,845.1Z"/><path class="cls-12" d="M595.9,852.4c1.4-9.7,9.1-6.7,14.9-7.3C609.5,855,601.7,851.8,595.9,852.4Z"/><path class="cls-16" d="M506.2,468.3c-1.9,8.4-7.2,11.1-14.9,10.6a88.69,88.69,0,0,0-49.4,10.7c-3.6,2-8.1,4.8-11-.8a12.49,12.49,0,0,1,.3-12.4c7-12.5,50-26.4,63.4-20.7C500.5,458.4,504.9,461.9,506.2,468.3Z"/><path class="cls-17" d="M683.5,478.2c-1.2,8.4-7.8,10.2-13.5,7.3-16.9-8.5-34.6-11.4-53.2-10.8-5.5.2-9-3.6-9.6-9.2-.5-4.9,1.9-7.8,6.1-10.2,14.8-8.6,61.3,4.4,68.5,19.4C682.3,475.8,682.8,476.9,683.5,478.2Z"/><path class="cls-18" d="M489.3,529.6c-.9,14.6-7.7,20.2-20.3,20.4-13.1.1-20.3-7.7-20.2-18.8.1-11.8,7-20.2,21.4-19.2C483.1,512.7,488.9,519.1,489.3,529.6Z"/><path class="cls-18" d="M639.4,549.8c-13,.6-20.2-7.4-20.3-18.6-.1-10.8,5.7-19.6,19.3-19.3,13.1.3,21.2,5.2,20.9,19.4C659,544,651.9,550,639.4,549.8Z"/><path class="cls-19" d="M581.2,630.6c13,.1,13.8,5.7,5.9,14.1-12,12.8-37.9,13.3-51.2,1.3-8.7-7.9-7.5-13.3,4.5-15.4C554,640.4,567.6,637.7,581.2,630.6Z"/><path class="cls-20" d="M581.2,630.6c-13.9,15.9-29.1,15.9-40.8,0,12.6-1.4,25.8,3.2,37.8-6.2C582.9,620.7,581.8,627.5,581.2,630.6Z"/><path class="cls-21" d="M788.4,564c-4.1-4-7.8-9-14.8-7.4.6-6.3,4.5-8.5,10-6.6C790.6,552.4,787.7,559,788.4,564Z"/><path class="cls-22" d="M341.2,593.8c3.5,0,7-.1,10.4-.1-.5,4.9-1.6,9.5-5.8,12.7C340.1,603.7,340.9,598.6,341.2,593.8Z"/><path class="cls-6" d="M308.3,558.5s-8,22.8,30.3,34.6c17.3,5.3,43.6-27.8,43.6-27.8l-71.5-45.7Z"/><path class="cls-6" d="M805.6,560.8s8,22.8-30.3,34.6c-17.3,5.3-43.6-27.8-43.6-27.8l71.5-45.7Z"/><path class="cls-23" d="M344.8,618.2a11.84,11.84,0,0,1-2.6-.2c-3.4-.4-13.6-1.5-13.4-48.1a22.67,22.67,0,0,1,4.3-12.7l9.2,7a11.11,11.11,0,0,0-2,5.7c-.1,16,1.9,32.5,4.2,36.6,1.3,0,3.4-.2,4.6-1.6.8-1,2.4-4.3-.5-13l11-3.7c3.5,10.4,3,18.5-1.5,23.9C355.1,616.1,350.3,618.2,344.8,618.2Z"/><path class="cls-23" d="M765.9,618.2a16.89,16.89,0,0,1-13.4-5.9c-4.4-5.5-4.9-13.5-1.5-23.9l11,3.7c-2.9,8.7-1.3,12-.5,13,1.1,1.4,2.8,1.6,4.6,1.6,2.4-4.1,4.3-20.5,4.2-36.6a11.11,11.11,0,0,0-2-5.7l9.2-7a22.51,22.51,0,0,1,4.4,12.8c.2,46.5-10,47.6-13.4,48Z"/><path class="cls-24" d="M779.4,942.4c-5.5-31-13.1-61.5-31-88.8a25.65,25.65,0,0,0-4.2-6.1h0a9,9,0,0,0-1-1.1c-4.1-4.5-8.3-8.5-12.5-12.3l-.2-.2c-31.1-31.8-82.7-52.8-82.7-52.8s-31.6,32.6-96.9,34.4-82.6-19.2-82.6-19.2-70.2,26.8-97.9,63.5c-2.9,3.6-5.7,7.3-8.3,11.1a1.73,1.73,0,0,0-.3.4h0a202.7,202.7,0,0,0-11.1,17.1,4.05,4.05,0,0,0-.5.9c-8.2,13.9-18.8,34.7-25.5,58.5a119.29,119.29,0,0,0-4.7,20.9c-.1.6-.6,4.5-.7,5.1,0,.4-.1.7-.1,1.1l-5.5,44.4c17.8,7.6-3.7-1.6,0,0l36.4,15.5c3,1.4-7.7-3.3,0,0a528.94,528.94,0,0,0,116.2,30,451.29,451.29,0,0,0,61.3,5h.9c8,.1,15.5.4,22.4.9l8.3-.7,1.6-.4a528.65,528.65,0,0,0,222.4-58.1c.7-.9,9.1-4.8,9.1-4.8h0Z"/></svg>