<svg id="Layer_1" data-name="Layer 1" xmlns="http://www.w3.org/2000/svg" viewBox="0 0 200 200"><defs><style>.cls-1{fill:#a8bfbf;}</style></defs><polygon class="cls-1" points="149.79 64.56 50.21 64.56 100 93.81 149.79 64.56"/><path class="cls-1" d="M100,105.34a5.33,5.33,0,0,1-2.7-.74l-61.38-36v66.89H164.08V68.55L102.7,104.6A5.3,5.3,0,0,1,100,105.34Z"/><path class="cls-1" d="M0,0V200H200V0ZM174.76,140.78a5.34,5.34,0,0,1-5.34,5.34H30.58a5.34,5.34,0,0,1-5.34-5.34V59.22c0-.11,0-.21,0-.31a5.42,5.42,0,0,1,.06-.58,4.21,4.21,0,0,1,.12-.51,4.58,4.58,0,0,1,.15-.49c.07-.18.16-.35.25-.53a1.75,1.75,0,0,1,.13-.28.6.6,0,0,1,.09-.13,5,5,0,0,1,.34-.46,3.93,3.93,0,0,1,.31-.38,4,4,0,0,1,.38-.34,3.36,3.36,0,0,1,.41-.34,3.66,3.66,0,0,1,.42-.26,4.09,4.09,0,0,1,.46-.25,3.9,3.9,0,0,1,.48-.17,4.16,4.16,0,0,1,.5-.16,4.11,4.11,0,0,1,.47-.07,3.93,3.93,0,0,1,.59-.06l.15,0H169.42l.16,0a5.29,5.29,0,0,1,.56.05c.17,0,.33,0,.49.08s.33.1.49.15.33.11.49.18a4,4,0,0,1,.45.25,3.91,3.91,0,0,1,.44.26c.14.1.27.22.4.33a4.14,4.14,0,0,1,.38.35,3.93,3.93,0,0,1,.31.38,5,5,0,0,1,.34.46.6.6,0,0,1,.09.13,1.75,1.75,0,0,1,.13.28c.09.18.18.35.25.53a4.58,4.58,0,0,1,.15.49,4.21,4.21,0,0,1,.12.51,5.42,5.42,0,0,1,.06.58c0,.1,0,.2,0,.31Z"/></svg>