<svg id="Layer_1" data-name="Layer 1" xmlns="http://www.w3.org/2000/svg" viewBox="0 0 200 200"><defs><style>.cls-1{fill:#a8bfbf;}</style></defs><path class="cls-1" d="M0,0V200H200V0ZM117.93,154.56c-2.85.55-3.86-1.2-3.86-2.68V136.52a13.4,13.4,0,0,0-3.79-10.38c12.47-1.39,25.56-6.12,25.56-27.65a21.58,21.58,0,0,0-5.77-15,20,20,0,0,0-.54-14.82s-4.68-1.51-15.39,5.74a53.19,53.19,0,0,0-28,0c-10.68-7.25-15.38-5.74-15.38-5.74a20,20,0,0,0-.55,14.82,21.57,21.57,0,0,0-5.78,15c0,21.46,13.08,26.29,25.53,27.7a11.74,11.74,0,0,0-3.56,7.48c-3.2,1.39-11.31,3.86-16.3-4.71a11.77,11.77,0,0,0-8.59-5.76s-5.46-.07-.38,3.39c0,0,3.67,1.74,6.21,8.21,0,0,3.25,10,18.83,6.61v10.43c0,1.45-1,3.2-3.81,2.68A56,56,0,0,1,100,45.39l.19,0a56,56,0,0,1,17.74,109.12ZM85.74,136.07a1.17,1.17,0,0,1-1.06,1c-.66.11-1.24-.15-1.32-.59s.38-.94,1-1.06,1.25.16,1.34.61Zm-4.28.73c0,.47-.52.85-1.18.85s-1.22-.36-1.22-.8.52-.85,1.2-.87S81.46,136.35,81.46,136.8Zm-4.57-.33a1.12,1.12,0,0,1-1.41.45c-.63-.19-1-.71-.91-1.16s.77-.63,1.41-.44S77,136,76.89,136.47Zm-4.18-1.81c-.31.33-1,.23-1.44-.21s-.63-1.11-.31-1.44a1.08,1.08,0,0,1,1.44.21C72.87,133.67,73,134.33,72.71,134.66Zm-3-3.11c-.35.24-.91,0-1.24-.49s-.36-1.11,0-1.34.89,0,1.24.47A1,1,0,0,1,69.69,131.55Zm-2.21-3.24c-.26.25-.8.14-1.15-.26a.89.89,0,0,1-.17-1.16c.29-.25.78-.14,1.16.26S67.76,128.07,67.48,128.31Zm-2.28-2.52c0,.28-.54.35-.94.16s-.64-.56-.52-.84.57-.36,1-.17S65.34,125.51,65.2,125.79Z"/></svg>